{"glyphs":{"0":{"ha":645,"x_min":0,"x_max":645,"o":"m 328 531 l 328 531 q 408 531 469 499 q 530 466 565 407 q 600 347 600 267 l 600 267 q 600 187 565 124 q 529 60 466 23 q 402 -14 317 -14 l 317 -14 q 239 -14 178 19 q 116 52 81 112 q 45 171 45 251 l 45 251 q 45 330 80 394 q 115 457 179 494 q 243 531 328 531 z m 319 513 l 319 513 q 265 513 231 445 q 196 376 196 254 l 196 254 q 196 164 214 109 q 232 54 262 29 q 291 4 326 4 l 326 4 q 380 4 415 73 q 449 142 449 264 l 449 264 q 449 354 431 409 q 413 464 384 489 q 354 513 319 513 z"},"1":{"ha":383,"x_min":0,"x_max":383,"o":"m 282 528 l 282 528 l 282 97 q 282 53 299 37 q 315 21 354 21 l 354 21 l 354 0 q 334 1 296 3 q 257 4 216 4 l 216 4 q 165 4 118 3 q 70 1 44 0 l 44 0 l 44 21 q 89 21 114 38 q 138 54 138 103 l 138 103 l 138 347 q 138 395 130 418 q 122 441 100 448 q 78 455 40 455 l 40 455 l 40 477 q 126 479 183 490 q 239 501 282 528 z"},"2":{"ha":523,"x_min":0,"x_max":523,"o":"m 275 531 l 275 531 q 352 531 397 498 q 442 465 442 404 l 442 404 q 442 365 423 333 q 403 301 371 273 q 339 244 303 219 q 266 194 232 170 q 198 145 174 119 l 174 119 l 390 119 q 431 119 442 129 q 453 139 457 164 l 457 164 l 478 164 q 478 97 479 60 q 480 23 482 -5 l 482 -5 q 473 -3 449 -2 q 425 -1 394 0 q 363 0 333 0 l 333 0 l 42 0 l 42 19 q 70 49 111 85 q 152 121 192 165 q 231 209 258 261 q 285 312 285 371 l 285 371 q 285 425 261 449 q 237 473 192 473 l 192 473 q 149 473 117 454 q 84 434 58 396 l 58 396 l 41 406 q 61 440 92 469 q 122 497 167 514 q 212 531 275 531 z"},"3":{"ha":488,"x_min":0,"x_max":488,"o":"m 246 531 l 246 531 q 295 531 334 518 q 373 504 395 479 q 417 453 417 416 l 417 416 q 417 378 393 345 q 368 312 323 288 q 277 263 214 251 l 214 251 q 282 254 336 237 q 390 220 422 186 q 453 151 453 99 l 453 99 q 453 53 429 14 q 404 -25 361 -55 q 318 -86 264 -107 q 209 -129 149 -140 q 89 -151 29 -151 l 29 -151 l 29 -131 q 76 -130 125 -114 q 173 -99 214 -70 q 254 -42 279 1 q 304 43 304 98 l 304 98 q 304 157 276 195 q 248 233 199 237 l 199 237 q 184 230 172 226 q 160 221 148 221 l 148 221 q 139 221 134 224 q 129 227 129 235 l 129 235 q 129 247 139 252 q 149 257 161 257 l 161 257 q 169 257 178 256 q 186 254 196 253 l 196 253 q 239 283 256 318 q 273 352 273 387 l 273 387 q 273 432 250 454 q 226 475 184 475 l 184 475 q 145 475 111 456 q 77 436 54 397 l 54 397 l 36 406 q 54 439 81 468 q 108 496 148 514 q 188 531 246 531 z"},"4":{"ha":528,"x_min":0,"x_max":528,"o":"m 8 57 l 381 531 l 385 505 l 73 105 l 87 139 l 405 139 q 446 139 457 149 q 468 159 472 184 l 472 184 l 493 184 q 493 124 494 91 q 495 57 497 31 l 497 31 q 490 33 471 34 q 452 34 426 35 q 400 36 374 36 q 347 36 324 36 l 324 36 l 8 36 l 8 57 z m 381 531 l 397 531 l 397 -141 l 281 -141 l 281 390 l 381 531 z"},"5":{"ha":459,"x_min":0,"x_max":459,"o":"m 364 555 l 385 555 q 385 489 386 453 q 387 416 389 387 l 389 387 q 381 389 359 390 q 336 391 307 392 q 278 392 250 392 l 250 392 l 96 392 l 80 221 q 104 238 142 250 q 179 261 231 261 l 231 261 q 298 261 341 240 q 384 219 405 183 q 426 147 426 103 l 426 103 q 426 45 392 -1 q 357 -47 299 -80 q 241 -113 171 -130 q 101 -148 30 -148 l 30 -148 l 30 -130 q 76 -130 121 -115 q 165 -100 200 -71 q 235 -42 256 0 q 277 42 277 97 l 277 97 q 277 159 248 193 q 219 227 162 227 l 162 227 q 133 227 113 220 q 92 212 72 198 l 72 198 l 58 207 l 90 520 q 101 518 116 517 q 130 516 144 516 l 144 516 l 309 516 q 338 516 350 525 q 361 534 364 555 l 364 555 z"},"6":{"ha":561,"x_min":0,"x_max":561,"o":"m 446 723 l 446 723 l 450 703 q 414 691 378 674 q 342 657 310 627 q 277 597 252 551 q 227 504 213 434 q 198 364 198 265 l 198 265 q 198 166 213 110 q 227 53 249 30 q 271 6 292 6 l 292 6 q 315 6 335 27 q 355 48 368 94 q 380 140 380 215 l 380 215 q 380 287 369 330 q 357 373 338 392 q 319 411 295 411 l 295 411 q 278 411 257 401 q 236 391 218 369 q 200 347 192 307 l 192 307 l 183 311 q 189 359 213 388 q 236 416 269 428 q 302 440 335 440 l 335 440 q 389 440 433 414 q 477 388 504 340 q 531 292 531 224 l 531 224 q 531 147 497 94 q 463 41 406 14 q 349 -14 282 -14 l 282 -14 q 172 -14 110 61 q 47 135 47 271 l 47 271 q 47 361 73 431 q 99 501 142 553 q 185 604 238 639 q 290 674 345 695 q 399 715 446 723 z"},"7":{"ha":455,"x_min":0,"x_max":455,"o":"m 23 521 l 23 521 q 32 519 56 518 q 80 517 111 517 q 142 516 172 516 l 172 516 l 454 516 l 454 495 q 435 450 406 399 q 376 347 347 287 q 317 226 298 157 q 278 87 278 6 l 278 6 q 278 0 280 -16 q 281 -32 282 -48 q 283 -65 283 -75 l 283 -75 q 283 -103 265 -125 q 247 -148 210 -148 l 210 -148 q 173 -148 155 -123 q 137 -98 137 -60 l 137 -60 q 137 -5 157 49 q 177 103 209 156 q 241 208 278 258 q 315 308 351 354 q 386 400 412 441 l 412 441 l 389 395 l 115 395 q 74 395 63 385 q 52 375 48 350 l 48 350 l 27 350 q 27 416 26 455 q 25 493 23 521 z"},"8":{"ha":561,"x_min":0,"x_max":561,"o":"m 288 722 l 288 722 q 345 722 390 705 q 434 687 459 656 q 484 625 484 582 l 484 582 q 484 528 445 489 q 405 449 335 414 l 335 414 l 327 428 q 343 448 352 473 q 361 498 365 525 q 368 552 368 574 l 368 574 q 368 635 345 670 q 321 704 280 704 l 280 704 q 246 704 227 681 q 208 658 208 621 l 208 621 q 208 578 231 541 q 253 504 289 471 q 324 438 364 405 q 404 372 440 337 q 475 302 498 263 q 520 223 520 175 l 520 175 q 520 119 488 77 q 456 35 401 11 q 346 -14 275 -14 l 275 -14 q 213 -14 160 5 q 107 24 75 63 q 43 101 43 157 l 43 157 q 43 205 66 243 q 89 280 129 308 q 168 336 217 356 l 217 356 l 225 342 q 192 309 180 265 q 167 221 167 175 l 167 175 q 167 129 178 90 q 188 51 213 28 q 238 4 280 4 l 280 4 q 328 4 355 34 q 381 64 381 112 l 381 112 q 381 158 359 196 q 337 233 303 267 q 268 300 229 332 q 189 364 155 398 q 120 431 98 471 q 76 510 76 559 l 76 559 q 76 614 106 650 q 135 686 184 704 q 232 722 288 722 z"},"9":{"ha":553,"x_min":0,"x_max":553,"o":"m 278 531 l 278 531 q 387 531 450 459 q 513 387 513 255 l 513 255 q 513 175 488 112 q 462 48 420 2 q 377 -45 326 -76 q 274 -108 221 -126 q 167 -145 120 -152 l 120 -152 l 116 -132 q 160 -119 204 -97 q 247 -75 283 -33 q 318 8 340 79 q 362 150 362 260 l 362 260 q 362 357 348 412 q 333 466 312 489 q 290 511 267 511 l 267 511 q 245 511 225 491 q 205 470 193 424 q 180 378 180 302 l 180 302 q 180 231 192 188 q 203 144 223 125 q 242 106 265 106 l 265 106 q 282 106 303 116 q 324 126 342 149 q 360 172 368 210 l 368 210 l 377 206 q 371 158 348 130 q 324 102 291 90 q 258 77 225 77 l 225 77 q 172 77 128 103 q 83 129 56 178 q 29 226 29 294 l 29 294 q 29 371 64 424 q 98 477 155 504 q 211 531 278 531 z"}," ":{"ha":233,"x_min":0,"x_max":233,"o":""},"!":{"ha":288,"x_min":0,"x_max":288,"o":"m 144 782 l 144 782 q 176 782 201 757 q 226 731 226 684 l 226 684 q 226 641 216 587 q 206 533 192 471 q 178 408 167 339 q 156 270 153 196 l 153 196 l 153 196 l 135 196 q 133 270 122 339 q 110 408 97 471 q 83 533 73 587 q 62 641 62 684 l 62 684 q 62 731 86 757 q 109 782 144 782 z m 144 140 l 144 140 q 183 140 206 120 q 229 99 229 63 l 229 63 q 229 27 206 7 q 183 -14 144 -14 l 144 -14 q 105 -14 82 7 q 59 27 59 63 l 59 63 q 59 99 82 120 q 105 140 144 140 z"},"\"":{"ha":369,"x_min":0,"x_max":369,"o":"m 105 730 l 105 730 q 132 730 150 713 q 168 695 168 664 l 168 664 q 168 634 160 608 q 151 582 139 550 q 126 518 112 468 l 112 468 l 98 468 q 85 516 72 548 q 58 580 50 607 q 42 633 42 663 l 42 663 q 42 694 60 712 q 78 730 105 730 z m 266 730 l 266 730 q 293 730 311 713 q 329 695 329 664 l 329 664 q 329 634 321 608 q 312 582 300 550 q 287 518 273 468 l 273 468 l 259 468 q 246 516 233 548 q 219 580 211 607 q 203 633 203 663 l 203 663 q 203 694 221 712 q 239 730 266 730 z"},"#":{"ha":620,"x_min":0,"x_max":620,"o":"m 443 602 l 463 602 l 366 101 l 346 101 l 443 602 z m 44 267 l 545 267 l 541 247 l 40 247 l 44 267 z m 256 602 l 276 602 l 179 101 l 159 101 l 256 602 z m 80 454 l 581 454 l 578 434 l 77 434 l 80 454 z"},"$":{"ha":574,"x_min":0,"x_max":574,"o":"m 279 721 l 279 721 q 338 721 370 709 q 402 696 425 682 l 425 682 q 437 675 445 672 q 452 668 459 668 l 459 668 q 469 668 474 679 q 478 690 481 712 l 481 712 l 504 712 q 503 693 502 667 q 500 640 500 597 q 499 554 499 484 l 499 484 l 476 484 q 469 546 450 595 q 430 643 393 671 q 356 699 295 699 l 295 699 q 235 699 205 673 q 175 646 175 605 l 175 605 q 175 582 183 563 q 190 543 211 522 q 231 501 270 473 q 308 445 369 406 l 369 406 q 417 376 455 345 q 493 313 516 274 q 538 235 538 181 l 538 181 q 538 115 504 72 q 470 29 414 8 q 357 -14 290 -14 l 290 -14 q 228 -14 193 -1 q 158 12 137 22 l 137 22 q 124 29 114 33 q 104 37 95 37 l 95 37 q 85 37 81 26 q 76 15 73 -7 l 73 -7 l 50 -7 q 52 17 53 49 q 53 81 54 133 q 54 184 54 263 l 54 263 l 77 263 q 82 195 96 147 q 110 98 135 68 q 159 37 197 23 q 234 8 286 8 l 286 8 q 333 8 363 21 q 392 33 407 56 q 421 79 421 111 l 421 111 q 421 132 414 151 q 407 170 387 191 q 367 211 330 239 q 293 267 233 308 l 233 308 q 186 338 145 370 q 104 402 80 443 q 55 483 55 538 l 55 538 q 55 601 87 642 q 118 682 170 702 q 221 721 279 721 z m 236 840 l 256 840 l 256 -132 l 236 -132 l 236 840 z m 333 840 l 353 840 l 353 -132 l 333 -132 l 333 840 z"},"%":{"ha":728,"x_min":0,"x_max":728,"o":"m 196 761 l 196 761 q 268 761 313 718 q 358 675 358 598 l 358 598 q 358 548 337 510 q 316 472 280 451 q 243 430 196 430 l 196 430 q 124 430 79 473 q 33 516 33 593 l 33 593 q 33 643 55 681 q 76 719 113 740 q 149 761 196 761 z m 530 299 l 530 299 q 498 299 482 261 q 465 223 465 150 l 465 150 q 465 77 484 41 q 502 4 534 4 l 534 4 q 567 4 583 42 q 598 80 598 152 l 598 152 q 598 226 580 263 q 562 299 530 299 z m 532 317 l 532 317 q 604 317 649 274 q 694 231 694 154 l 694 154 q 694 104 673 66 q 652 28 616 7 q 579 -14 532 -14 l 532 -14 q 460 -14 415 29 q 369 72 369 149 l 369 149 q 369 199 391 237 q 412 275 449 296 q 485 317 532 317 z m 194 743 l 194 743 q 162 743 146 705 q 129 667 129 594 l 129 594 q 129 521 148 485 q 166 448 198 448 l 198 448 q 231 448 247 486 q 262 524 262 596 l 262 596 q 262 670 244 707 q 226 743 194 743 z m 67 -42 l 652 824 l 671 811 l 86 -55 l 67 -42 z"},"&":{"ha":898,"x_min":0,"x_max":898,"o":"m 330 710 l 330 710 q 369 710 393 705 q 417 699 434 689 l 434 689 q 450 682 464 671 q 477 660 486 644 q 495 628 495 608 l 495 608 q 495 578 472 560 q 449 542 418 542 l 418 542 q 388 542 367 557 q 345 572 345 604 l 345 604 q 345 629 363 650 q 381 670 409 675 l 409 675 q 402 683 384 688 q 365 693 343 693 l 343 693 q 291 693 255 661 q 218 628 218 562 l 218 562 q 218 539 226 513 q 234 487 257 460 l 257 460 q 274 464 289 466 q 303 468 313 468 l 313 468 q 331 468 341 461 q 350 453 350 441 l 350 441 q 350 432 342 426 q 334 420 322 420 l 322 420 q 305 420 287 430 q 269 439 258 446 l 258 446 q 211 422 182 385 q 152 347 152 284 l 152 284 q 152 218 188 176 q 224 133 290 112 q 355 90 444 90 l 444 90 q 494 90 543 101 q 592 112 632 134 q 671 156 695 189 q 719 221 719 264 l 719 264 q 719 280 715 305 q 710 329 693 354 q 676 378 637 394 l 637 394 l 644 403 q 698 386 726 339 q 754 292 754 231 l 754 231 q 754 161 711 106 q 668 50 591 18 q 513 -14 409 -14 l 409 -14 q 326 -14 259 3 q 191 20 143 53 q 94 85 68 131 q 41 177 41 235 l 41 235 q 41 291 65 331 q 88 370 122 396 q 156 421 190 435 q 224 449 244 454 l 244 454 q 213 467 188 485 q 162 502 147 526 q 131 550 131 580 l 131 580 q 131 612 148 637 q 165 661 194 677 q 222 693 258 702 q 293 710 330 710 z m 723 722 l 723 722 q 794 722 838 685 q 882 648 882 581 l 882 581 q 882 530 858 495 q 833 460 788 438 q 742 416 679 403 l 679 403 q 665 398 644 392 q 623 385 601 379 q 579 373 559 367 q 538 361 523 357 l 523 357 q 445 340 403 319 q 361 297 361 260 l 361 260 q 361 235 378 217 q 394 199 419 189 q 444 179 469 179 l 469 179 q 476 179 484 181 q 492 182 499 185 q 506 187 509 189 l 509 189 q 484 197 472 215 q 459 232 459 255 l 459 255 q 459 287 482 304 q 505 321 539 321 l 539 321 q 575 321 596 302 q 616 283 616 253 l 616 253 q 616 222 597 202 q 578 181 546 172 q 514 162 474 162 l 474 162 q 435 162 401 176 q 366 190 346 219 q 325 247 325 290 l 325 290 q 325 343 352 379 q 379 414 430 438 q 480 461 549 474 l 549 474 q 570 479 596 486 q 621 492 648 499 q 675 506 698 514 l 698 514 q 770 532 810 554 q 849 576 849 613 l 849 613 q 849 640 833 661 q 816 681 790 693 q 764 704 736 704 l 736 704 q 727 704 720 703 q 712 702 707 699 l 707 699 q 732 690 744 672 q 756 654 756 636 l 756 636 q 756 605 733 589 q 710 572 676 572 l 676 572 q 642 572 620 590 q 598 607 598 638 l 598 638 q 598 665 614 684 q 629 702 657 712 q 685 722 723 722 z"},"'":{"ha":209,"x_min":0,"x_max":209,"o":"m 105 730 l 105 730 q 132 730 150 713 q 168 695 168 664 l 168 664 q 168 634 160 608 q 151 582 139 550 q 126 518 112 468 l 112 468 l 98 468 q 85 516 72 548 q 58 580 50 607 q 42 633 42 663 l 42 663 q 42 694 60 712 q 78 730 105 730 z"},"(":{"ha":318,"x_min":0,"x_max":318,"o":"m 285 806 l 285 806 l 300 794 q 233 690 203 574 q 173 458 173 312 l 173 312 q 173 167 203 52 q 233 -63 300 -170 l 300 -170 l 285 -182 q 166 -94 101 27 q 35 148 35 312 l 35 312 q 35 476 101 597 q 166 718 285 806 z"},")":{"ha":318,"x_min":0,"x_max":318,"o":"m 18 794 l 33 806 q 152 718 218 597 q 283 476 283 312 l 283 312 q 283 148 218 27 q 152 -94 33 -182 l 33 -182 l 18 -170 q 86 -63 116 52 q 145 167 145 312 l 145 312 q 145 458 115 574 q 85 690 18 794 l 18 794 z"},"*":{"ha":481,"x_min":0,"x_max":481,"o":"m 352 639 l 352 639 q 378 654 396 647 q 414 639 423 624 l 423 624 q 432 608 430 589 q 427 570 401 555 l 401 555 q 376 541 338 536 q 299 530 241 517 l 241 517 l 240 520 q 277 562 303 594 q 328 625 352 639 z m 240 517 l 242 520 q 296 508 337 502 q 377 496 401 482 l 401 482 q 427 467 430 448 q 433 428 423 413 l 423 413 q 415 397 397 390 q 379 383 353 398 l 353 398 q 328 412 304 443 q 280 473 240 517 l 240 517 z m 240 517 l 243 518 q 260 465 275 428 q 290 390 290 361 l 290 361 q 290 331 274 319 q 258 307 241 307 l 241 307 q 222 307 208 319 q 193 331 193 361 l 193 361 q 193 390 207 426 q 221 462 240 517 l 240 517 z m 240 518 l 240 518 l 242 516 q 204 475 179 443 q 154 411 130 397 l 130 397 q 104 382 86 390 q 67 397 58 412 l 58 412 q 49 428 52 447 q 55 466 81 481 l 81 481 q 106 495 144 501 q 182 507 240 518 z m 129 638 l 129 638 q 154 624 178 594 q 202 563 241 519 l 241 519 l 240 516 q 185 528 145 534 q 105 540 80 554 l 80 554 q 55 569 52 589 q 49 608 58 623 l 58 623 q 67 639 85 646 q 103 653 129 638 z m 241 729 l 241 729 q 259 729 274 717 q 289 705 289 675 l 289 675 q 289 647 275 611 q 260 574 242 518 l 242 518 l 239 518 q 221 571 207 609 q 192 647 192 675 l 192 675 q 192 705 208 717 q 223 729 241 729 z"},"+":{"ha":574,"x_min":0,"x_max":574,"o":"m 269 606 l 305 606 l 305 370 l 537 370 l 537 340 l 305 340 l 305 105 l 269 105 l 269 340 l 36 340 l 36 370 l 269 370 l 269 606 z"},",":{"ha":271,"x_min":0,"x_max":271,"o":"m 131 140 l 131 140 q 156 140 174 131 q 192 122 202 105 l 202 105 q 213 91 219 68 q 224 45 224 22 l 224 22 q 224 -28 199 -70 q 173 -113 119 -138 l 119 -138 l 110 -120 q 138 -108 160 -83 q 182 -58 186 -32 l 186 -32 q 191 -10 186 10 l 186 10 q 164 -14 128 -14 l 128 -14 q 93 -14 71 7 q 49 27 49 63 l 49 63 q 49 98 73 119 q 96 140 131 140 z"},"-":{"ha":481,"x_min":0,"x_max":481,"o":"m 60 312 l 421 312 l 421 229 l 60 229 l 60 312 z"},".":{"ha":270,"x_min":0,"x_max":270,"o":"m 135 140 l 135 140 q 174 140 197 120 q 220 99 220 63 l 220 63 q 220 27 197 7 q 174 -14 135 -14 l 135 -14 q 96 -14 73 7 q 50 27 50 63 l 50 63 q 50 99 73 120 q 96 140 135 140 z"},"/":{"ha":368,"x_min":0,"x_max":368,"o":"m 304 722 l 337 722 l 65 -14 l 32 -14 l 304 722 z"},":":{"ha":290,"x_min":0,"x_max":290,"o":"m 145 531 l 145 531 q 184 531 207 511 q 230 490 230 454 l 230 454 q 230 418 207 398 q 184 377 145 377 l 145 377 q 106 377 83 398 q 60 418 60 454 l 60 454 q 60 490 83 511 q 106 531 145 531 z m 145 140 l 145 140 q 184 140 207 120 q 230 99 230 63 l 230 63 q 230 27 207 7 q 184 -14 145 -14 l 145 -14 q 106 -14 83 7 q 60 27 60 63 l 60 63 q 60 99 83 120 q 106 140 145 140 z"},";":{"ha":296,"x_min":0,"x_max":296,"o":"m 143 140 l 143 140 q 168 140 186 131 q 204 122 214 105 l 214 105 q 225 91 231 68 q 236 45 236 22 l 236 22 q 236 -28 211 -70 q 185 -113 131 -138 l 131 -138 l 122 -120 q 150 -108 172 -83 q 194 -58 198 -32 l 198 -32 q 203 -10 198 10 l 198 10 q 176 -14 140 -14 l 140 -14 q 105 -14 83 7 q 61 27 61 63 l 61 63 q 61 98 85 119 q 108 140 143 140 z m 149 531 l 149 531 q 188 531 211 511 q 234 490 234 454 l 234 454 q 234 418 211 398 q 188 377 149 377 l 149 377 q 110 377 87 398 q 64 418 64 454 l 64 454 q 64 490 87 511 q 110 531 149 531 z"},"<":{"ha":602,"x_min":0,"x_max":602,"o":"m 28 355 l 515 582 l 532 546 l 123 355 l 532 164 l 515 128 l 28 355 z"},"=":{"ha":635,"x_min":0,"x_max":635,"o":"m 67 440 l 568 440 l 568 410 l 67 410 l 67 440 z m 67 300 l 568 300 l 568 270 l 67 270 l 67 300 z"},">":{"ha":602,"x_min":0,"x_max":602,"o":"m 70 546 l 87 582 l 574 355 l 87 128 l 70 164 l 479 355 l 70 546 z"},"?":{"ha":508,"x_min":0,"x_max":508,"o":"m 237 782 l 237 782 q 309 782 363 761 q 416 739 447 699 q 477 658 477 602 l 477 602 q 477 546 445 502 q 412 458 355 428 q 298 397 222 380 l 222 380 l 222 234 l 202 234 l 202 389 q 258 414 286 444 q 314 474 324 509 q 334 544 334 583 l 334 583 q 334 678 300 720 q 265 762 211 762 l 211 762 q 184 762 161 756 q 137 750 124 736 l 124 736 q 151 727 166 710 q 180 692 180 663 l 180 663 q 180 632 158 612 q 136 591 101 591 l 101 591 q 69 591 50 612 q 30 632 30 660 l 30 660 q 30 691 47 712 q 63 732 87 747 l 87 747 q 111 761 149 772 q 186 782 237 782 z m 213 140 l 213 140 q 252 140 275 120 q 298 99 298 63 l 298 63 q 298 27 275 7 q 252 -14 213 -14 l 213 -14 q 174 -14 151 7 q 128 27 128 63 l 128 63 q 128 99 151 120 q 174 140 213 140 z"},"@":{"ha":884,"x_min":0,"x_max":884,"o":"m 534 668 l 534 668 q 623 668 695 640 q 767 612 810 552 q 852 491 852 393 l 852 393 q 852 309 825 241 q 797 173 753 125 q 708 77 656 52 q 604 26 556 26 l 556 26 q 517 26 499 41 q 481 55 478 78 q 475 100 480 124 q 485 148 490 167 l 490 167 l 551 464 q 582 464 616 467 q 649 470 677 478 l 677 478 l 598 117 q 593 96 593 81 q 592 66 599 61 q 606 55 622 60 l 622 60 q 653 69 689 95 q 725 121 758 163 q 790 205 811 263 q 832 321 832 394 l 832 394 q 832 487 791 543 q 750 599 683 625 q 615 650 535 650 l 535 650 q 461 650 391 624 q 321 598 262 551 q 203 503 159 440 q 114 376 90 301 q 65 226 65 145 l 65 145 q 65 42 105 -21 q 145 -85 214 -114 q 283 -143 371 -143 l 371 -143 q 425 -143 477 -130 q 528 -118 577 -89 l 577 -89 l 584 -102 q 547 -128 492 -144 q 437 -161 370 -161 l 370 -161 q 275 -161 202 -129 q 129 -97 87 -30 q 45 37 45 143 l 45 143 q 45 224 69 301 q 93 377 138 444 q 183 510 244 561 q 305 611 379 640 q 452 668 534 668 z m 464 478 l 464 478 q 495 478 514 464 q 532 449 540 425 q 547 401 543 374 l 543 374 l 533 367 q 535 384 532 402 q 528 419 517 431 q 506 443 489 443 l 489 443 q 464 443 440 419 q 416 394 397 353 q 377 311 365 261 q 353 210 353 157 l 353 157 q 353 111 364 93 q 375 74 394 74 l 394 74 q 427 74 456 119 q 485 164 508 245 l 508 245 l 513 228 q 494 154 468 110 q 442 65 411 46 q 379 26 341 26 l 341 26 q 306 26 280 41 q 253 55 239 84 q 225 113 225 156 l 225 156 q 225 209 245 266 q 264 322 298 370 q 331 418 374 448 q 417 478 464 478 z"},"A":{"ha":667,"x_min":0,"x_max":667,"o":"m 368 710 l 368 710 l 611 84 q 625 48 643 35 q 660 21 674 20 l 674 20 l 674 0 q 644 2 604 3 q 563 3 522 3 l 522 3 q 476 3 435 3 q 394 2 370 0 l 370 0 l 370 20 q 421 22 435 38 q 448 53 428 104 l 428 104 l 258 569 l 276 595 l 124 199 q 102 144 98 109 q 93 74 103 55 q 112 36 134 29 q 155 21 185 20 l 185 20 l 185 0 q 152 2 122 3 q 92 3 61 3 l 61 3 q 39 3 20 3 q 0 2 -15 0 l -15 0 l -15 20 q 6 24 28 47 q 50 70 71 125 l 71 125 l 299 710 q 315 709 334 709 q 352 709 368 710 z m 150 288 l 438 288 l 438 268 l 140 268 l 150 288 z"},"B":{"ha":672,"x_min":0,"x_max":672,"o":"m 34 688 l 34 708 q 60 707 102 706 q 144 705 186 705 l 186 705 q 234 705 279 706 q 324 707 343 707 l 343 707 q 467 707 529 663 q 590 619 590 550 l 590 550 q 590 515 569 479 q 548 443 504 415 q 460 387 390 374 l 390 374 l 390 372 q 484 365 539 338 q 594 311 618 273 q 642 235 642 194 l 642 194 q 642 131 609 88 q 576 45 514 23 q 452 0 366 0 l 366 0 q 342 0 297 2 q 252 3 188 3 l 188 3 q 144 3 102 3 q 60 2 34 0 l 34 0 l 34 20 q 66 22 82 28 q 98 34 104 52 q 109 70 109 106 l 109 106 l 109 602 q 109 639 104 657 q 98 674 82 681 q 65 687 34 688 l 34 688 z m 330 688 l 330 688 q 291 688 280 671 q 268 654 268 602 l 268 602 l 268 106 q 268 71 274 53 q 279 35 294 29 q 308 23 337 23 l 337 23 q 409 23 443 69 q 476 114 476 198 l 476 198 q 476 275 438 317 q 399 359 310 359 l 310 359 l 225 359 q 225 359 225 368 q 225 376 225 376 l 225 376 l 311 376 q 358 376 383 399 q 408 421 418 459 q 428 496 428 539 l 428 539 q 428 613 405 651 q 382 688 330 688 z"},"C":{"ha":705,"x_min":0,"x_max":705,"o":"m 397 722 l 397 722 q 463 722 506 703 q 548 683 581 657 l 581 657 q 601 642 612 654 q 622 665 626 708 l 626 708 l 649 708 q 647 669 646 614 q 645 558 645 466 l 645 466 l 622 466 q 617 512 609 545 q 601 577 587 602 q 573 627 547 647 l 547 647 q 522 672 489 684 q 456 696 420 696 l 420 696 q 366 696 328 668 q 290 639 267 590 q 243 541 232 480 q 221 418 221 352 l 221 352 q 221 285 233 224 q 244 162 269 114 q 293 66 332 38 q 371 10 424 10 l 424 10 q 457 10 491 23 q 524 35 548 59 l 548 59 q 587 89 601 134 q 615 178 622 252 l 622 252 l 645 252 q 645 157 646 99 q 647 40 649 0 l 649 0 l 626 0 q 622 43 613 54 q 603 65 581 51 l 581 51 q 544 25 503 6 q 461 -14 396 -14 l 396 -14 q 290 -14 211 29 q 131 72 87 153 q 43 234 43 348 l 43 348 q 43 460 89 544 q 134 628 214 675 q 293 722 397 722 z"},"D":{"ha":776,"x_min":0,"x_max":776,"o":"m 343 708 l 343 708 q 540 708 636 619 q 732 529 732 362 l 732 362 q 732 253 685 172 q 638 90 549 45 q 459 0 334 0 l 334 0 q 318 0 292 1 q 266 2 238 3 q 210 3 188 3 l 188 3 q 144 3 102 3 q 59 2 34 0 l 34 0 l 34 20 q 66 22 82 28 q 98 34 104 52 q 109 70 109 106 l 109 106 l 109 602 q 109 639 104 657 q 98 674 82 681 q 65 687 34 688 l 34 688 l 34 708 q 59 707 102 706 q 144 704 186 705 l 186 705 q 222 706 268 707 q 313 708 343 708 z m 342 690 l 342 690 q 296 690 282 673 q 268 656 268 604 l 268 604 l 268 104 q 268 52 283 35 q 297 18 343 18 l 343 18 q 427 18 476 58 q 524 97 545 173 q 566 249 566 358 l 566 358 q 566 470 544 544 q 521 617 472 654 q 423 690 342 690 z"},"E":{"ha":634,"x_min":0,"x_max":634,"o":"m 569 708 l 569 708 q 565 664 564 623 q 562 582 562 560 l 562 560 q 562 540 563 522 q 564 504 565 492 l 565 492 l 542 492 q 532 565 511 608 q 490 650 457 668 q 423 685 378 685 l 378 685 l 337 685 q 308 685 293 680 q 278 675 273 660 q 268 645 268 614 l 268 614 l 268 94 q 268 63 273 48 q 278 33 293 28 q 308 23 337 23 l 337 23 l 386 23 q 431 23 466 43 q 500 62 525 109 q 549 156 562 236 l 562 236 l 585 236 q 582 204 582 152 l 582 152 q 582 129 583 87 q 584 45 589 0 l 589 0 q 538 2 474 3 q 410 3 360 3 l 360 3 q 335 3 296 3 q 257 3 212 3 q 167 2 121 2 q 75 1 34 0 l 34 0 l 34 20 q 66 22 82 28 q 98 34 104 52 q 109 70 109 106 l 109 106 l 109 602 q 109 639 104 657 q 98 674 82 681 q 65 687 34 688 l 34 688 l 34 708 q 75 707 121 707 q 167 706 212 706 q 257 705 296 705 q 335 705 360 705 l 360 705 q 406 705 465 706 q 523 706 569 708 z m 238 366 l 413 366 q 413 366 413 356 q 413 346 413 346 l 413 346 l 238 346 q 238 346 238 356 q 238 366 238 366 l 238 366 z m 419 498 l 442 498 q 438 441 439 411 q 439 381 439 356 l 439 356 q 439 331 440 301 q 441 271 445 214 l 445 214 l 422 214 q 417 249 404 279 q 390 309 365 328 q 340 346 300 346 l 300 346 l 300 366 q 330 366 351 379 q 372 391 386 412 q 399 432 407 455 q 415 478 419 498 l 419 498 z"},"F":{"ha":592,"x_min":0,"x_max":592,"o":"m 569 708 l 569 708 q 565 663 564 621 q 562 579 562 556 l 562 556 q 562 534 563 514 q 564 494 565 480 l 565 480 l 542 480 q 529 558 506 603 q 483 647 450 666 q 416 685 370 685 l 370 685 l 337 685 q 308 685 293 680 q 278 675 273 660 q 268 645 268 614 l 268 614 l 268 112 q 268 73 276 54 q 284 35 307 29 q 330 23 375 22 l 375 22 l 375 0 q 344 1 295 2 q 246 3 192 3 l 192 3 q 149 3 108 2 q 67 1 34 0 l 34 0 l 34 20 q 66 22 82 28 q 98 34 104 52 q 109 70 109 106 l 109 106 l 109 602 q 109 639 104 657 q 98 674 82 681 q 65 687 34 688 l 34 688 l 34 708 q 75 707 121 707 q 167 706 212 706 q 257 705 296 705 q 335 705 360 705 l 360 705 q 406 705 465 706 q 523 706 569 708 z m 238 362 l 420 362 q 420 362 420 352 q 420 342 420 342 l 420 342 l 238 342 q 238 342 238 352 q 238 362 238 362 l 238 362 z m 422 494 l 445 494 q 441 437 442 407 q 442 377 442 352 l 442 352 q 442 327 443 297 q 444 267 448 210 l 448 210 l 425 210 q 419 245 406 275 q 393 305 368 324 q 343 342 303 342 l 303 342 l 303 362 q 333 362 354 375 q 374 387 388 408 q 402 428 410 451 q 418 474 422 494 l 422 494 z"},"G":{"ha":735,"x_min":0,"x_max":735,"o":"m 405 722 l 405 722 q 473 722 516 703 q 559 684 593 657 l 593 657 q 605 648 613 648 l 613 648 q 632 648 638 708 l 638 708 l 661 708 q 659 669 658 614 q 657 558 657 466 l 657 466 l 634 466 q 627 526 613 571 q 598 615 559 647 l 559 647 q 535 670 500 683 q 464 696 428 696 l 428 696 q 373 696 334 668 q 295 639 270 590 q 245 541 233 480 q 221 418 221 352 l 221 352 q 221 172 271 89 q 320 6 413 6 l 413 6 q 437 6 455 12 q 473 18 484 26 l 484 26 q 498 36 503 48 q 508 59 508 78 l 508 78 l 508 176 q 508 222 501 245 q 493 267 471 275 q 449 283 407 284 l 407 284 l 407 304 q 428 303 458 303 q 487 302 519 302 q 551 301 578 301 l 578 301 q 620 301 655 302 q 690 303 712 304 l 712 304 l 712 284 q 693 283 684 277 q 674 271 671 253 q 667 235 667 198 l 667 198 l 667 0 l 647 0 q 646 17 640 37 q 633 57 618 57 l 618 57 q 611 57 600 54 q 588 50 564 36 l 564 36 q 527 15 486 1 q 445 -14 400 -14 l 400 -14 q 284 -14 204 29 q 124 72 84 153 q 43 233 43 346 l 43 346 q 43 460 90 544 q 136 628 218 675 q 299 722 405 722 z"},"H":{"ha":800,"x_min":0,"x_max":800,"o":"m 458 0 l 458 0 l 458 20 q 490 22 506 28 q 522 34 528 52 q 533 70 533 106 l 533 106 l 533 602 q 533 639 528 657 q 522 674 506 681 q 489 687 458 688 l 458 688 l 458 708 q 485 707 529 706 q 572 705 615 705 l 615 705 q 661 705 702 706 q 742 707 767 708 l 767 708 l 767 688 q 735 687 719 681 q 702 674 697 657 q 692 639 692 602 l 692 602 l 692 106 q 692 70 698 52 q 703 34 719 28 q 735 22 767 20 l 767 20 l 767 0 q 742 2 702 3 q 661 3 615 3 l 615 3 q 572 3 529 3 q 485 2 458 0 z m 34 0 l 34 0 l 34 20 q 66 22 82 28 q 98 34 104 52 q 109 70 109 106 l 109 106 l 109 602 q 109 639 104 657 q 98 674 82 681 q 65 687 34 688 l 34 688 l 34 708 q 60 707 102 706 q 143 705 192 705 l 192 705 q 234 705 275 706 q 316 707 343 708 l 343 708 l 343 688 q 311 687 295 681 q 278 674 273 657 q 268 639 268 602 l 268 602 l 268 106 q 268 70 274 52 q 279 34 295 28 q 311 22 343 20 l 343 20 l 343 0 q 316 2 275 3 q 234 3 192 3 l 192 3 q 143 3 102 3 q 60 2 34 0 z m 598 346 l 203 346 l 203 366 l 598 366 l 598 346 z"},"I":{"ha":376,"x_min":0,"x_max":376,"o":"m 343 708 l 343 708 l 343 688 q 311 687 295 681 q 278 674 273 657 q 268 639 268 602 l 268 602 l 268 106 q 268 70 274 52 q 279 34 295 28 q 311 22 343 20 l 343 20 l 343 0 q 316 2 275 3 q 234 3 192 3 l 192 3 q 143 3 102 3 q 60 2 34 0 l 34 0 l 34 20 q 66 22 82 28 q 98 34 104 52 q 109 70 109 106 l 109 106 l 109 602 q 109 639 104 657 q 98 674 82 681 q 65 687 34 688 l 34 688 l 34 708 q 60 707 102 706 q 143 705 192 705 l 192 705 q 234 705 275 706 q 316 707 343 708 z"},"J":{"ha":364,"x_min":0,"x_max":364,"o":"m -23 -188 l -23 -188 l -23 -168 q 17 -164 45 -144 q 73 -125 88 -78 q 103 -31 103 54 l 103 54 l 103 602 q 103 639 98 657 q 92 674 76 681 q 60 687 28 688 l 28 688 l 28 708 q 53 707 94 706 q 134 705 179 705 l 179 705 q 224 705 267 706 q 309 707 337 708 l 337 708 l 337 688 q 306 687 290 681 q 273 674 268 657 q 262 639 262 602 l 262 602 l 262 236 q 262 195 262 148 q 262 100 259 55 q 255 10 245 -25 l 245 -25 q 225 -94 159 -141 q 92 -188 -23 -188 z"},"K":{"ha":714,"x_min":0,"x_max":714,"o":"m 689 708 l 689 708 l 689 689 q 657 682 621 661 q 584 640 544 593 l 544 593 l 356 369 l 414 452 l 652 81 q 666 58 682 44 q 698 30 724 20 l 724 20 l 724 0 q 689 2 646 3 q 603 3 568 3 l 568 3 q 547 3 517 3 q 487 2 441 0 l 441 0 l 441 20 q 482 22 491 32 q 499 41 483 65 l 483 65 l 338 300 q 324 323 313 335 q 302 346 291 351 q 280 355 262 356 l 262 356 l 262 377 q 306 378 341 401 q 375 424 416 471 l 416 471 l 475 542 q 513 587 520 620 q 526 652 507 670 q 487 688 447 689 l 447 689 l 447 708 q 472 707 495 707 q 517 706 542 706 q 566 705 595 705 l 595 705 q 624 705 648 706 q 671 707 689 708 z m 343 708 l 343 708 l 343 688 q 311 687 295 681 q 278 674 273 657 q 268 639 268 602 l 268 602 l 268 106 q 268 70 274 52 q 279 34 295 28 q 311 22 343 20 l 343 20 l 343 0 q 316 2 275 3 q 234 3 192 3 l 192 3 q 144 3 102 3 q 59 2 34 0 l 34 0 l 34 20 q 66 22 82 28 q 98 34 104 52 q 109 70 109 106 l 109 106 l 109 602 q 109 639 104 657 q 98 674 82 681 q 65 687 34 688 l 34 688 l 34 708 q 59 707 102 706 q 144 705 192 705 l 192 705 q 234 705 275 706 q 316 707 343 708 z"},"L":{"ha":611,"x_min":0,"x_max":611,"o":"m 349 708 l 349 708 l 349 688 q 315 687 298 681 q 280 674 274 657 q 268 639 268 602 l 268 602 l 268 94 q 268 63 273 48 q 277 33 291 28 q 304 23 331 23 l 331 23 l 380 23 q 414 23 444 39 q 474 55 498 85 q 522 114 538 155 q 554 196 562 246 l 562 246 l 585 246 q 582 212 582 158 l 582 158 q 582 135 583 91 q 584 47 589 0 l 589 0 q 538 2 474 3 q 410 3 360 3 l 360 3 q 335 3 296 3 q 257 3 212 3 q 167 2 121 2 q 75 1 34 0 l 34 0 l 34 20 q 66 22 82 28 q 98 34 104 52 q 109 70 109 106 l 109 106 l 109 602 q 109 639 104 657 q 98 674 82 681 q 65 687 34 688 l 34 688 l 34 708 q 59 707 102 706 q 144 705 192 705 l 192 705 q 236 705 279 706 q 321 707 349 708 z"},"M":{"ha":927,"x_min":0,"x_max":927,"o":"m 894 708 l 894 708 l 894 688 q 862 687 846 681 q 830 674 825 657 q 819 639 819 602 l 819 602 l 819 106 q 819 70 825 52 q 830 34 846 28 q 862 22 894 20 l 894 20 l 894 0 q 866 2 824 3 q 781 3 737 3 l 737 3 q 689 3 647 3 q 605 2 579 0 l 579 0 l 579 20 q 613 22 631 28 q 648 34 654 52 q 660 70 660 106 l 660 106 l 660 647 l 667 647 l 419 -1 l 403 -1 l 133 643 l 133 164 q 133 109 139 80 q 145 50 166 38 q 186 25 230 20 l 230 20 l 230 0 q 211 2 180 3 q 149 3 122 3 l 122 3 q 99 3 75 3 q 51 2 35 0 l 35 0 l 35 20 q 67 25 83 37 q 99 49 105 77 q 110 104 110 152 l 110 152 l 110 602 q 110 639 105 657 q 99 674 83 681 q 66 687 35 688 l 35 688 l 35 708 q 51 707 75 706 q 99 705 122 705 l 122 705 q 165 705 207 706 q 248 707 280 708 l 280 708 l 490 201 l 465 178 l 666 705 q 683 705 701 705 q 719 705 737 705 l 737 705 q 781 705 824 706 q 866 707 894 708 z"},"N":{"ha":722,"x_min":0,"x_max":722,"o":"m 693 708 l 693 708 l 693 688 q 661 684 645 672 q 629 659 624 632 q 618 605 618 556 l 618 556 l 618 -2 q 606 -1 594 -1 q 581 -1 567 -2 l 567 -2 l 133 548 l 133 164 q 133 109 139 80 q 145 50 166 38 q 186 25 230 20 l 230 20 l 230 0 q 211 2 180 3 q 149 3 122 3 l 122 3 q 99 3 75 3 q 51 2 35 0 l 35 0 l 35 20 q 67 25 83 37 q 99 49 105 77 q 110 104 110 152 l 110 152 l 110 602 q 110 639 105 657 q 99 674 83 681 q 66 687 35 688 l 35 688 l 35 708 q 51 707 75 706 q 99 705 122 705 l 122 705 q 146 705 168 706 q 190 707 208 708 l 208 708 l 595 231 l 595 544 q 595 599 589 629 q 583 658 563 671 q 542 684 498 688 l 498 688 l 498 708 q 517 707 548 706 q 579 705 606 705 l 606 705 q 630 705 654 706 q 677 707 693 708 z"},"O":{"ha":793,"x_min":0,"x_max":793,"o":"m 397 722 l 397 722 q 503 722 583 679 q 662 636 706 556 q 750 475 750 360 l 750 360 q 750 248 705 164 q 660 80 580 33 q 499 -14 396 -14 l 396 -14 q 290 -14 211 29 q 131 72 87 153 q 43 234 43 348 l 43 348 q 43 460 89 544 q 134 628 214 675 q 293 722 397 722 z m 393 704 l 393 704 q 337 704 296 659 q 254 614 232 535 q 209 456 209 352 l 209 352 q 209 246 235 168 q 260 89 304 47 q 347 4 400 4 l 400 4 q 456 4 498 49 q 539 94 562 174 q 584 253 584 356 l 584 356 q 584 463 559 541 q 533 619 490 662 q 446 704 393 704 z"},"P":{"ha":641,"x_min":0,"x_max":641,"o":"m 34 688 l 34 708 q 59 707 102 706 q 144 705 186 705 l 186 705 q 234 705 279 706 q 324 707 343 707 l 343 707 q 482 707 551 652 q 620 597 620 510 l 620 510 q 620 474 606 435 q 592 395 559 362 q 525 328 467 307 q 409 286 321 286 l 321 286 l 219 286 l 219 306 l 311 306 q 370 306 401 333 q 431 360 443 404 q 454 448 454 499 l 454 499 q 454 594 426 641 q 398 688 330 688 l 330 688 q 291 688 280 671 q 268 654 268 602 l 268 602 l 268 112 q 268 73 276 54 q 284 35 307 29 q 330 23 375 22 l 375 22 l 375 0 q 344 1 295 2 q 246 3 192 3 l 192 3 q 149 3 108 2 q 67 1 34 0 l 34 0 l 34 20 q 66 22 82 28 q 98 34 104 52 q 109 70 109 106 l 109 106 l 109 602 q 109 639 104 657 q 98 674 82 681 q 65 687 34 688 l 34 688 z"},"Q":{"ha":793,"x_min":0,"x_max":793,"o":"m 764 12 l 764 12 l 782 7 q 774 -48 757 -87 q 740 -127 713 -149 l 713 -149 q 692 -166 659 -177 q 625 -188 584 -188 l 584 -188 q 529 -188 477 -171 q 424 -154 370 -129 q 316 -105 256 -82 l 256 -82 q 249 -80 243 -77 q 236 -75 232 -75 l 232 -75 q 213 -84 191 -90 q 168 -96 148 -96 l 148 -96 q 128 -96 115 -90 q 101 -84 101 -70 l 101 -70 q 101 -43 156 -43 l 156 -43 q 191 -43 232 -57 l 232 -57 q 269 -47 296 -34 q 322 -22 351 -11 q 379 0 420 3 l 420 3 l 421 -13 q 389 -16 367 -24 q 344 -33 321 -43 q 298 -53 267 -62 l 267 -62 q 338 -67 399 -72 q 460 -78 512 -79 q 564 -81 606 -75 l 606 -75 q 668 -68 704 -48 q 740 -28 764 12 z m 397 722 l 397 722 q 503 722 583 679 q 662 636 706 556 q 750 475 750 360 l 750 360 q 750 248 705 164 q 660 80 580 33 q 499 -14 396 -14 l 396 -14 q 290 -14 211 29 q 131 72 87 153 q 43 234 43 348 l 43 348 q 43 460 89 544 q 134 628 214 675 q 293 722 397 722 z m 393 704 l 393 704 q 337 704 296 659 q 254 614 232 535 q 209 456 209 352 l 209 352 q 209 246 235 168 q 260 89 304 47 q 347 4 400 4 l 400 4 q 456 4 498 49 q 539 94 562 174 q 584 253 584 356 l 584 356 q 584 463 559 541 q 533 619 490 662 q 446 704 393 704 z"},"R":{"ha":692,"x_min":0,"x_max":692,"o":"m 34 688 l 34 708 q 59 707 102 706 q 144 705 186 705 l 186 705 q 234 705 279 706 q 324 707 343 707 l 343 707 q 436 707 498 687 q 559 666 590 627 q 620 588 620 533 l 620 533 q 620 499 606 465 q 592 430 559 401 q 525 371 467 354 q 409 336 321 336 l 321 336 l 225 336 l 225 356 l 311 356 q 370 356 401 379 q 431 401 443 439 q 454 476 454 522 l 454 522 q 454 601 426 645 q 398 688 330 688 l 330 688 q 291 688 280 671 q 268 654 268 602 l 268 602 l 268 106 q 268 70 274 52 q 279 34 295 28 q 311 22 343 20 l 343 20 l 343 0 q 316 2 275 3 q 234 3 192 3 l 192 3 q 144 3 102 3 q 59 2 34 0 l 34 0 l 34 20 q 66 22 82 28 q 98 34 104 52 q 109 70 109 106 l 109 106 l 109 602 q 109 639 104 657 q 98 674 82 681 q 65 687 34 688 l 34 688 z m 225 336 l 223 353 q 266 352 298 349 q 329 346 353 344 q 377 341 396 340 l 396 340 q 487 332 531 301 q 574 270 587 208 l 587 208 l 610 105 q 619 65 629 49 q 639 33 658 33 l 658 33 q 671 34 680 40 q 688 45 698 56 l 698 56 l 712 44 q 685 13 654 0 q 623 -14 579 -14 l 579 -14 q 525 -14 490 9 q 455 32 444 94 l 444 94 l 426 194 q 419 236 409 268 q 399 299 382 318 q 364 336 333 336 l 333 336 l 225 336 z"},"S":{"ha":584,"x_min":0,"x_max":584,"o":"m 284 721 l 284 721 q 343 721 375 709 q 407 696 430 682 l 430 682 q 442 675 450 672 q 457 668 464 668 l 464 668 q 474 668 479 679 q 483 690 486 712 l 486 712 l 509 712 q 508 693 507 667 q 505 640 505 597 q 504 554 504 484 l 504 484 l 481 484 q 477 536 457 585 q 437 634 401 666 q 364 697 311 697 l 311 697 q 263 697 232 670 q 201 643 201 595 l 201 595 q 201 555 221 527 q 241 498 280 471 q 318 444 373 406 l 373 406 q 421 375 459 344 q 497 313 520 274 q 543 235 543 181 l 543 181 q 543 115 509 72 q 474 29 418 8 q 362 -14 295 -14 l 295 -14 q 233 -14 196 -2 q 159 10 134 23 l 134 23 q 112 37 100 37 l 100 37 q 90 37 86 26 q 81 15 78 -7 l 78 -7 l 55 -7 q 57 17 58 49 q 58 81 59 133 q 59 184 59 263 l 59 263 l 82 263 q 86 197 105 140 q 123 82 162 47 q 200 12 264 12 l 264 12 q 299 12 327 25 q 354 37 371 62 q 388 87 388 124 l 388 124 q 388 166 369 197 q 349 228 316 255 q 282 282 238 310 l 238 310 q 191 341 150 372 q 109 403 85 443 q 60 483 60 538 l 60 538 q 60 601 92 642 q 123 682 175 702 q 226 721 284 721 z"},"T":{"ha":668,"x_min":0,"x_max":668,"o":"m 642 708 l 642 708 q 638 657 637 610 q 635 563 635 538 l 635 538 q 635 516 636 496 q 637 476 638 462 l 638 462 l 615 462 q 599 546 575 595 q 550 644 516 665 q 482 685 436 685 l 436 685 l 413 685 l 413 114 q 413 74 422 54 q 430 34 453 28 q 476 21 520 20 l 520 20 l 520 0 q 489 1 438 2 q 386 3 330 3 l 330 3 q 275 3 226 2 q 177 1 147 0 l 147 0 l 147 20 q 192 21 215 28 q 238 34 246 54 q 254 74 254 114 l 254 114 l 254 685 l 232 685 q 186 685 152 665 q 118 644 94 596 q 70 547 52 462 l 52 462 l 29 462 q 31 476 32 496 q 32 516 32 538 l 32 538 q 32 563 31 610 q 29 657 25 708 l 25 708 q 71 707 126 706 q 180 705 235 705 q 290 705 334 705 l 334 705 q 379 705 434 705 q 488 705 543 706 q 598 707 642 708 z"},"U":{"ha":689,"x_min":0,"x_max":689,"o":"m 671 708 l 671 708 l 671 688 q 639 684 623 672 q 606 659 601 632 q 596 605 596 556 l 596 556 l 596 291 q 596 226 587 172 q 578 118 555 79 l 555 79 q 529 36 479 11 q 429 -14 352 -14 l 352 -14 q 306 -14 258 -3 q 210 7 172 36 l 172 36 q 140 63 123 97 q 106 131 100 178 q 94 224 94 288 l 94 288 l 94 602 q 94 639 89 657 q 83 674 67 681 q 51 687 19 688 l 19 688 l 19 708 q 44 707 87 706 q 129 705 175 705 l 175 705 q 221 705 264 706 q 306 707 334 708 l 334 708 l 334 688 q 300 687 283 681 q 265 674 259 657 q 253 639 253 602 l 253 602 l 253 225 q 253 175 260 137 q 266 98 282 73 q 297 47 324 34 q 351 21 391 21 l 391 21 q 461 21 501 54 q 540 87 557 146 q 573 204 573 280 l 573 280 l 573 544 q 573 599 566 629 q 559 658 539 671 q 518 684 476 688 l 476 688 l 476 708 q 495 707 526 706 q 557 705 584 705 l 584 705 q 608 705 632 706 q 655 707 671 708 z"},"V":{"ha":668,"x_min":0,"x_max":668,"o":"m 678 708 l 678 708 l 678 688 q 656 680 632 653 q 607 626 586 569 l 586 569 l 375 -2 q 367 -1 358 -1 q 349 -1 340 -1 l 340 -1 q 332 -1 323 -1 q 314 -1 306 -2 l 306 -2 l 51 624 q 37 660 20 674 q 3 687 -12 688 l -12 688 l -12 708 q 18 707 59 706 q 99 705 140 705 l 140 705 q 186 705 227 706 q 267 707 292 708 l 292 708 l 292 688 q 260 687 242 681 q 224 674 222 657 q 220 639 234 604 l 234 604 l 416 141 l 395 116 l 533 488 q 560 563 561 606 q 562 649 540 668 q 518 687 477 688 l 477 688 l 477 708 q 511 707 541 706 q 571 705 602 705 l 602 705 q 624 705 644 706 q 663 707 678 708 z"},"W":{"ha":968,"x_min":0,"x_max":968,"o":"m 974 708 l 974 708 l 974 688 q 952 680 928 654 q 904 627 886 569 l 886 569 l 710 -2 q 702 -1 693 -1 q 684 -1 675 -1 l 675 -1 q 666 -1 657 -1 q 648 -1 640 -2 l 640 -2 l 430 634 q 420 665 406 676 q 391 687 375 688 l 375 688 l 375 708 q 403 707 442 706 q 480 705 518 705 l 518 705 q 562 705 601 706 q 639 707 662 708 l 662 708 l 662 688 q 632 687 615 681 q 597 675 595 658 q 592 641 604 604 l 604 604 l 746 170 l 723 129 l 836 488 q 860 564 859 607 q 858 650 836 669 q 814 687 773 688 l 773 688 l 773 708 q 807 707 837 706 q 867 705 897 705 l 897 705 q 920 705 940 706 q 959 707 974 708 z m 260 708 l 260 708 l 260 688 q 240 685 232 674 q 224 662 226 644 q 227 625 234 604 l 234 604 l 387 160 l 360 124 l 488 498 l 502 471 l 345 -2 q 337 -1 328 -1 q 319 -1 310 -1 l 310 -1 q 301 -1 292 -1 q 283 -1 275 -2 l 275 -2 l 51 624 q 38 661 21 674 q 3 687 -12 688 l -12 688 l -12 708 q 18 707 59 706 q 100 705 137 705 l 137 705 q 177 705 209 706 q 240 707 260 708 z"},"X":{"ha":691,"x_min":0,"x_max":691,"o":"m 299 709 l 299 709 l 299 688 q 254 688 242 680 q 229 671 243 650 l 243 650 l 639 71 q 659 43 671 33 q 683 23 703 21 l 703 21 l 703 0 q 683 1 645 3 q 607 4 566 4 l 566 4 q 521 4 475 3 q 428 1 405 0 l 405 0 l 405 21 q 451 21 465 28 q 478 34 464 55 l 464 55 l 67 638 q 48 667 36 677 q 24 687 3 688 l 3 688 l 3 709 q 24 708 65 707 q 105 705 146 705 l 146 705 q 191 705 233 707 q 274 708 299 709 z m 150 142 l 308 356 q 308 356 310 350 q 312 343 314 337 q 316 330 316 330 l 316 330 l 216 193 q 176 139 171 102 q 166 64 189 44 q 211 23 255 20 l 255 20 l 255 0 q 241 1 220 2 q 198 2 175 3 q 151 3 131 3 q 110 3 97 3 l 97 3 q 69 3 45 3 q 21 2 5 0 l 5 0 l 5 20 q 40 32 76 63 q 112 93 150 142 l 150 142 z m 658 708 l 658 708 l 658 688 q 625 679 593 650 q 560 621 532 583 l 532 583 l 370 367 q 370 367 367 380 q 363 393 363 393 l 363 393 l 466 532 q 504 580 512 614 q 519 648 500 667 q 481 686 440 688 l 440 688 l 440 708 q 459 707 482 707 q 505 706 528 706 q 550 705 566 705 l 566 705 q 595 705 619 706 q 643 707 658 708 z"},"Y":{"ha":623,"x_min":0,"x_max":623,"o":"m 617 709 l 617 709 l 617 689 q 595 680 572 654 q 549 627 521 573 l 521 573 l 332 199 l 285 199 l 51 632 q 33 666 19 677 q 4 688 -7 688 l -7 688 l -7 709 q 20 706 49 705 q 77 704 111 704 l 111 704 q 155 704 206 706 q 257 707 299 709 l 299 709 l 299 688 q 274 688 254 684 q 234 680 226 670 q 218 659 230 636 l 230 636 l 388 332 l 357 292 l 460 499 q 497 571 500 612 q 502 653 480 671 q 457 688 416 689 l 416 689 l 416 709 q 450 708 480 707 q 510 706 541 706 l 541 706 q 563 706 583 707 q 602 708 617 709 z m 331 249 l 403 357 l 403 106 q 403 70 409 52 q 414 34 430 28 q 446 22 478 20 l 478 20 l 478 0 q 451 2 409 3 q 366 3 324 3 l 324 3 q 277 3 235 3 q 193 2 169 0 l 169 0 l 169 20 q 201 22 217 28 q 233 34 239 52 q 244 70 244 106 l 244 106 l 244 311 l 331 249 z"},"Z":{"ha":602,"x_min":0,"x_max":602,"o":"m 557 708 l 557 708 l 557 688 l 215 23 l 319 23 q 353 23 388 34 q 422 45 452 70 q 481 95 502 137 q 523 178 530 240 l 530 240 l 553 240 q 550 206 550 152 l 550 152 q 550 129 551 87 q 552 45 557 0 l 557 0 q 520 2 476 3 q 432 3 389 3 q 345 3 308 3 l 308 3 q 243 3 172 3 q 101 2 39 0 l 39 0 l 39 20 l 382 685 l 274 685 q 236 685 204 675 q 171 665 144 642 q 117 618 99 579 q 81 539 74 480 l 74 480 l 51 480 q 53 494 54 514 q 54 534 54 556 l 54 556 q 54 579 53 621 q 51 663 47 708 l 47 708 q 80 707 120 706 q 160 705 200 705 q 239 705 272 705 l 272 705 q 339 705 415 706 q 491 706 557 708 z"},"[":{"ha":322,"x_min":0,"x_max":322,"o":"m 84 772 l 285 772 l 285 753 l 228 753 l 228 -162 l 285 -162 l 285 -181 l 84 -181 l 84 772 z"},"\\":{"ha":368,"x_min":0,"x_max":368,"o":"m 303 -14 l 31 722 l 64 722 l 336 -14 l 303 -14 z"},"]":{"ha":322,"x_min":0,"x_max":322,"o":"m 38 753 l 38 772 l 239 772 l 239 -181 l 38 -181 l 38 -162 l 95 -162 l 95 753 l 38 753 z"},"^":{"ha":529,"x_min":0,"x_max":529,"o":"m 255 528 l 273 528 q 303 470 356 415 q 409 360 472 324 l 472 324 l 464 310 q 401 325 341 348 q 281 371 244 394 l 244 394 q 215 371 166 348 q 116 325 64 310 l 64 310 l 56 324 q 120 359 173 415 q 225 470 255 528 l 255 528 z"},"_":{"ha":591,"x_min":0,"x_max":591,"o":"m 66 -84 l 556 -84 l 556 -183 l 66 -183 l 66 -84 z"},"`":{"ha":296,"x_min":0,"x_max":296,"o":"m 69 817 l 69 817 q 87 833 112 829 q 136 825 151 806 l 151 806 q 168 787 178 761 q 188 735 203 699 q 217 662 246 608 l 246 608 l 235 599 q 191 640 160 663 q 128 686 106 702 q 83 718 66 738 l 66 738 q 50 758 51 781 q 52 803 69 817 z"},"a":{"ha":518,"x_min":0,"x_max":518,"o":"m 162 -7 l 162 -7 q 117 -7 87 10 q 57 27 43 56 q 29 84 29 118 l 29 118 q 29 161 49 188 q 68 215 99 232 q 130 249 165 260 q 199 271 231 282 q 262 292 282 307 q 301 321 301 344 l 301 344 l 301 422 q 301 448 293 469 q 284 489 267 500 q 249 511 221 511 l 221 511 q 201 511 181 506 q 161 500 148 487 l 148 487 q 176 477 192 457 q 207 436 207 410 l 207 410 q 207 376 184 356 q 160 336 128 336 l 128 336 q 92 336 74 359 q 55 381 55 413 l 55 413 q 55 442 70 461 q 84 480 110 497 l 110 497 q 138 513 178 522 q 217 531 263 531 l 263 531 q 309 531 346 522 q 383 512 408 487 l 408 487 q 431 464 438 431 q 445 397 445 346 l 445 346 l 445 74 q 445 49 450 40 q 455 30 467 30 l 467 30 q 476 30 485 35 q 493 40 503 47 l 503 47 l 513 30 q 492 12 465 3 q 437 -7 403 -7 l 403 -7 q 366 -7 344 4 q 322 14 313 32 q 303 50 303 74 l 303 74 q 279 36 245 15 q 211 -7 162 -7 z m 233 57 l 233 57 q 253 57 270 67 q 286 76 301 98 l 301 98 l 301 303 q 292 288 276 276 q 260 264 242 252 q 224 239 208 224 q 191 209 181 187 q 171 165 171 134 l 171 134 q 171 95 188 76 q 205 57 233 57 z"},"b":{"ha":586,"x_min":0,"x_max":586,"o":"m 367 531 l 367 531 q 445 531 497 468 q 548 404 548 272 l 548 272 q 548 168 517 105 q 485 42 433 14 q 381 -14 319 -14 l 319 -14 q 278 -14 243 0 q 208 14 183 46 l 183 46 l 197 51 q 215 29 240 18 q 264 7 288 7 l 288 7 q 343 7 370 69 q 397 131 397 258 l 397 258 q 397 344 387 395 q 376 445 356 467 q 336 488 308 488 l 308 488 q 273 488 244 460 q 215 431 211 380 l 211 380 l 206 415 q 224 472 267 502 q 310 531 367 531 z m 214 782 l 214 782 l 214 20 q 189 24 163 20 q 137 16 115 7 q 93 -3 78 -16 l 78 -16 l 63 -7 q 67 7 69 21 q 70 35 70 49 l 70 49 l 70 662 q 70 707 57 729 q 43 750 6 750 l 6 750 l 6 771 q 38 768 68 768 l 68 768 q 109 768 146 772 q 183 775 214 782 z"},"c":{"ha":496,"x_min":0,"x_max":496,"o":"m 284 531 l 284 531 q 323 531 356 523 q 388 514 409 501 l 409 501 q 435 485 450 462 q 464 438 464 407 l 464 407 q 464 372 442 350 q 420 327 385 327 l 385 327 q 350 327 329 347 q 308 367 308 401 l 308 401 q 308 433 328 455 q 348 476 374 483 l 374 483 q 366 493 350 500 q 334 507 314 507 l 314 507 q 283 507 260 489 q 236 471 220 439 q 204 407 196 364 q 187 321 187 270 l 187 270 q 187 193 207 149 q 226 105 257 87 q 287 69 320 69 l 320 69 q 339 69 362 75 q 384 81 408 99 q 431 117 451 150 l 451 150 l 468 144 q 457 107 432 70 q 407 33 367 10 q 327 -14 269 -14 l 269 -14 q 204 -14 152 15 q 99 43 68 103 q 36 162 36 256 l 36 256 q 36 346 69 408 q 101 469 157 500 q 213 531 284 531 z"},"d":{"ha":598,"x_min":0,"x_max":598,"o":"m 516 783 l 516 783 l 516 110 q 516 65 530 44 q 544 22 580 22 l 580 22 l 580 1 q 549 4 518 4 l 518 4 q 476 4 440 1 q 403 -2 372 -10 l 372 -10 l 372 663 q 372 708 359 730 q 345 751 308 751 l 308 751 l 308 772 q 340 769 370 769 l 370 769 q 411 769 448 773 q 485 776 516 783 z m 261 531 l 261 531 q 305 531 339 517 q 372 502 391 468 l 391 468 l 379 457 q 366 481 345 492 q 323 502 299 502 l 299 502 q 248 502 218 443 q 188 383 189 259 l 189 259 q 189 174 201 124 q 212 73 234 51 q 255 29 283 29 l 283 29 q 317 29 344 56 q 371 83 373 129 l 373 129 l 378 94 q 363 41 330 14 q 296 -14 242 -14 l 242 -14 q 183 -14 137 15 q 90 44 64 105 q 38 165 38 261 l 38 261 q 38 352 67 412 q 96 471 147 501 q 197 531 261 531 z"},"e":{"ha":504,"x_min":0,"x_max":504,"o":"m 282 531 l 282 531 q 370 531 420 479 q 470 427 470 309 l 470 309 l 141 309 l 139 328 l 344 328 q 345 377 338 419 q 331 460 316 485 q 301 510 276 510 l 276 510 q 241 510 217 466 q 192 422 187 320 l 187 320 l 190 314 q 189 302 189 289 q 188 276 188 262 l 188 262 q 188 193 208 150 q 227 107 257 88 q 287 68 318 68 l 318 68 q 339 68 362 75 q 384 81 407 99 q 430 116 450 148 l 450 148 l 468 142 q 456 104 430 68 q 404 32 364 9 q 324 -14 268 -14 l 268 -14 q 200 -14 148 15 q 96 44 67 103 q 37 162 37 253 l 37 253 q 37 346 69 408 q 100 470 156 501 q 211 531 282 531 z"},"f":{"ha":352,"x_min":0,"x_max":352,"o":"m 288 782 l 288 782 q 323 782 349 773 q 375 764 395 749 l 395 749 q 409 738 419 719 q 429 699 429 674 l 429 674 q 429 647 410 626 q 390 605 358 605 l 358 605 q 325 605 304 624 q 282 643 282 676 l 282 676 q 282 702 297 722 q 312 742 341 750 l 341 750 q 338 756 329 760 q 320 764 305 764 l 305 764 q 285 764 272 757 q 259 750 251 738 l 251 738 q 240 723 236 695 q 232 666 232 607 l 232 607 l 232 516 l 339 516 l 339 496 l 232 496 l 232 103 q 232 54 257 38 q 282 21 326 21 l 326 21 l 326 0 q 300 1 253 3 q 206 4 154 4 l 154 4 q 116 4 80 3 q 43 1 24 0 l 24 0 l 24 21 q 59 21 74 36 q 88 51 88 93 l 88 93 l 88 496 l 20 496 l 20 516 l 88 516 q 88 575 94 615 q 100 654 114 682 q 128 710 151 732 l 151 732 q 173 753 210 768 q 246 782 288 782 z"},"g":{"ha":553,"x_min":0,"x_max":553,"o":"m 218 -188 l 218 -188 q 156 -188 108 -177 q 59 -167 32 -145 q 4 -124 4 -93 l 4 -93 q 4 -62 32 -37 q 60 -13 115 1 l 115 1 l 124 -15 q 105 -30 97 -47 q 88 -65 88 -84 l 88 -84 q 88 -126 127 -148 q 165 -171 231 -171 l 231 -171 q 276 -171 312 -159 q 347 -147 368 -123 q 388 -99 388 -64 l 388 -64 q 388 -34 366 -13 q 344 7 278 7 l 278 7 l 216 7 q 175 7 145 16 q 114 25 97 45 q 80 64 80 94 l 80 94 q 80 136 113 168 q 146 200 211 228 l 211 228 l 221 220 q 202 208 186 195 q 169 181 169 160 l 169 160 q 169 128 209 128 l 209 128 l 318 128 q 373 128 417 115 q 460 102 486 73 q 511 43 511 -4 l 511 -4 q 511 -53 480 -95 q 448 -137 383 -162 q 318 -188 218 -188 z m 228 213 l 228 213 q 171 213 126 230 q 81 247 55 282 q 29 317 29 372 l 29 372 q 29 427 55 463 q 81 498 126 515 q 171 531 228 531 l 228 531 q 285 531 330 515 q 375 498 401 463 q 427 427 427 372 l 427 372 q 427 317 401 282 q 375 247 330 230 q 285 213 228 213 z m 228 231 l 228 231 q 255 231 270 262 q 285 292 285 372 l 285 372 q 285 452 270 483 q 255 513 228 513 l 228 513 q 202 513 187 483 q 171 452 171 372 l 171 372 q 171 292 187 262 q 202 231 228 231 z m 384 445 l 384 445 l 364 452 q 379 491 413 517 q 446 543 485 543 l 485 543 q 517 543 534 526 q 550 508 550 480 l 550 480 q 550 450 534 436 q 518 421 498 421 l 498 421 q 481 421 467 433 q 452 445 450 470 q 448 494 467 533 l 467 533 l 474 527 q 436 513 417 495 q 398 476 384 445 z"},"h":{"ha":608,"x_min":0,"x_max":608,"o":"m 227 782 l 227 782 l 227 438 q 252 490 295 511 q 337 531 390 531 l 390 531 q 433 531 459 521 q 485 510 500 492 l 500 492 q 517 473 525 443 q 532 413 532 362 l 532 362 l 532 93 q 532 51 547 36 q 561 21 596 21 l 596 21 l 596 0 q 577 1 539 3 q 500 4 464 4 l 464 4 q 425 4 389 3 q 352 1 334 0 l 334 0 l 334 21 q 364 21 376 36 q 388 51 388 93 l 388 93 l 388 404 q 388 429 383 448 q 378 466 365 477 q 351 487 326 487 l 326 487 q 299 487 277 473 q 254 458 241 432 q 227 406 227 372 l 227 372 l 227 93 q 227 51 239 36 q 251 21 281 21 l 281 21 l 281 0 q 263 1 228 3 q 193 4 157 4 l 157 4 q 118 4 79 3 q 39 1 19 0 l 19 0 l 19 21 q 54 21 69 36 q 83 51 83 93 l 83 93 l 83 662 q 83 707 70 729 q 56 750 19 750 l 19 750 l 19 771 q 51 768 81 768 l 81 768 q 122 768 159 772 q 196 775 227 782 z"},"i":{"ha":315,"x_min":0,"x_max":315,"o":"m 154 775 l 154 775 q 196 775 221 755 q 245 734 245 698 l 245 698 q 245 662 221 642 q 196 621 154 621 l 154 621 q 112 621 88 642 q 63 662 63 698 l 63 698 q 63 734 88 755 q 112 775 154 775 z m 232 528 l 232 528 l 232 93 q 232 51 247 36 q 261 21 296 21 l 296 21 l 296 0 q 278 1 240 3 q 202 4 163 4 l 163 4 q 124 4 84 3 q 44 1 24 0 l 24 0 l 24 21 q 59 21 74 36 q 88 51 88 93 l 88 93 l 88 408 q 88 453 75 475 q 61 496 24 496 l 24 496 l 24 517 q 56 514 86 514 l 86 514 q 128 514 165 518 q 201 521 232 528 z"},"j":{"ha":297,"x_min":0,"x_max":297,"o":"m -23 -188 l -23 -188 l -23 -170 q 26 -169 55 -131 q 84 -94 84 -18 l 84 -18 l 84 408 q 84 453 70 475 q 56 496 20 496 l 20 496 l 20 517 q 52 514 82 514 l 82 514 q 123 514 160 518 q 197 521 228 528 l 228 528 l 228 94 q 228 39 221 -3 q 214 -45 198 -77 q 182 -109 156 -134 l 156 -134 q 131 -158 88 -173 q 44 -188 -23 -188 z m 145 775 l 145 775 q 187 775 212 755 q 236 734 236 698 l 236 698 q 236 662 212 642 q 187 621 145 621 l 145 621 q 103 621 79 642 q 54 662 54 698 l 54 698 q 54 734 79 755 q 103 775 145 775 z"},"k":{"ha":585,"x_min":0,"x_max":585,"o":"m 227 783 l 227 783 l 227 93 q 227 51 241 36 q 254 21 287 21 l 287 21 l 287 0 q 268 1 232 3 q 195 4 157 4 l 157 4 q 118 4 79 3 q 39 1 19 0 l 19 0 l 19 21 q 54 21 69 36 q 83 51 83 93 l 83 93 l 83 663 q 83 708 70 730 q 56 751 19 751 l 19 751 l 19 772 q 51 769 81 769 l 81 769 q 122 769 159 773 q 196 776 227 783 z m 553 517 l 553 517 l 553 497 q 522 491 491 471 q 460 451 428 420 l 428 420 l 351 340 l 361 359 l 532 73 q 543 55 555 41 q 567 27 584 21 l 584 21 l 584 0 q 569 1 539 3 q 509 4 479 4 l 479 4 q 442 4 405 3 q 368 1 350 0 l 350 0 l 350 21 q 370 21 377 31 q 384 40 375 55 l 375 55 l 276 234 q 264 253 253 259 q 241 264 222 265 l 222 265 l 222 284 q 243 286 259 291 q 274 296 287 310 l 287 310 l 363 384 q 397 416 397 441 q 397 466 376 481 q 354 496 319 497 l 319 497 l 319 517 q 347 516 380 515 q 413 514 436 514 l 436 514 q 456 514 479 515 q 501 515 521 516 q 541 516 553 517 z"},"l":{"ha":311,"x_min":0,"x_max":311,"o":"m 228 783 l 228 783 l 228 93 q 228 51 243 36 q 257 21 292 21 l 292 21 l 292 0 q 273 1 235 3 q 197 4 158 4 l 158 4 q 119 4 80 3 q 40 1 20 0 l 20 0 l 20 21 q 55 21 70 36 q 84 51 84 93 l 84 93 l 84 663 q 84 708 71 730 q 57 751 20 751 l 20 751 l 20 772 q 52 769 82 769 l 82 769 q 123 769 160 773 q 197 776 228 783 z"},"m":{"ha":905,"x_min":0,"x_max":905,"o":"m 387 531 l 387 531 q 429 531 455 521 q 481 510 497 492 l 497 492 q 513 473 520 443 q 527 412 527 362 l 527 362 l 527 93 q 527 51 540 36 q 553 21 585 21 l 585 21 l 585 0 q 567 1 531 3 q 494 4 459 4 l 459 4 q 423 4 388 3 q 353 1 335 0 l 335 0 l 335 21 q 362 21 373 36 q 383 51 383 93 l 383 93 l 383 404 q 383 429 379 448 q 375 466 364 477 q 352 487 329 487 l 329 487 q 303 487 281 472 q 259 457 246 431 q 232 404 232 371 l 232 371 l 232 93 q 232 51 243 36 q 254 21 280 21 l 280 21 l 280 0 q 264 1 231 3 q 197 4 162 4 l 162 4 q 124 4 84 3 q 44 1 24 0 l 24 0 l 24 21 q 59 21 74 36 q 88 51 88 93 l 88 93 l 88 408 q 88 453 75 475 q 61 496 24 496 l 24 496 l 24 517 q 56 514 86 514 l 86 514 q 128 514 165 518 q 201 521 232 528 l 232 528 l 232 438 q 256 488 297 510 q 338 531 387 531 z m 688 531 l 688 531 q 730 531 756 521 q 782 510 798 492 l 798 492 q 814 473 821 443 q 828 412 828 362 l 828 362 l 828 93 q 828 51 843 36 q 857 21 892 21 l 892 21 l 892 0 q 873 1 835 3 q 797 4 760 4 l 760 4 q 724 4 689 3 q 654 1 636 0 l 636 0 l 636 21 q 663 21 674 36 q 684 51 684 93 l 684 93 l 684 404 q 684 429 680 448 q 675 466 663 477 q 650 487 624 487 l 624 487 q 598 487 576 471 q 554 455 541 428 q 527 401 526 368 l 526 368 l 521 429 q 548 489 593 510 q 637 531 688 531 z"},"n":{"ha":614,"x_min":0,"x_max":614,"o":"m 396 531 l 396 531 q 438 531 465 521 q 491 510 506 492 l 506 492 q 522 473 530 443 q 537 413 537 362 l 537 362 l 537 93 q 537 51 552 36 q 566 21 601 21 l 601 21 l 601 0 q 582 1 544 3 q 506 4 469 4 l 469 4 q 431 4 395 3 q 358 1 339 0 l 339 0 l 339 21 q 369 21 381 36 q 393 51 393 93 l 393 93 l 393 404 q 393 429 388 448 q 383 466 370 477 q 357 487 331 487 l 331 487 q 304 487 282 472 q 259 457 246 431 q 232 404 232 371 l 232 371 l 232 93 q 232 51 245 36 q 257 21 286 21 l 286 21 l 286 0 q 268 1 234 3 q 199 4 162 4 l 162 4 q 124 4 84 3 q 44 1 24 0 l 24 0 l 24 21 q 59 21 74 36 q 88 51 88 93 l 88 93 l 88 408 q 88 453 75 475 q 61 496 24 496 l 24 496 l 24 517 q 56 514 86 514 l 86 514 q 128 514 165 518 q 201 521 232 528 l 232 528 l 232 438 q 257 489 300 510 q 343 531 396 531 z"},"o":{"ha":565,"x_min":0,"x_max":565,"o":"m 282 531 l 282 531 q 355 531 410 504 q 465 477 496 417 q 527 357 527 258 l 527 258 q 527 159 496 100 q 465 40 410 13 q 355 -14 282 -14 l 282 -14 q 211 -14 156 13 q 100 40 69 100 q 37 159 37 258 l 37 258 q 37 357 69 417 q 100 477 156 504 q 211 531 282 531 z m 282 511 l 282 511 q 242 511 215 452 q 188 392 188 258 l 188 258 q 188 124 215 65 q 242 6 282 6 l 282 6 q 323 6 350 65 q 376 124 376 258 l 376 258 q 376 392 350 452 q 323 511 282 511 z"},"p":{"ha":600,"x_min":0,"x_max":600,"o":"m 228 528 l 228 528 l 228 -82 q 228 -129 252 -144 q 276 -160 318 -160 l 318 -160 l 318 -181 q 292 -180 247 -178 q 201 -177 150 -177 l 150 -177 q 113 -177 78 -178 q 42 -180 24 -181 l 24 -181 l 24 -160 q 57 -160 71 -146 q 84 -132 84 -92 l 84 -92 l 84 408 q 84 453 70 475 q 56 496 20 496 l 20 496 l 20 517 q 52 514 82 514 l 82 514 q 123 514 160 518 q 197 521 228 528 z m 383 531 l 383 531 q 434 531 474 504 q 514 476 538 421 q 562 365 562 282 l 562 282 q 562 209 546 154 q 529 99 499 62 q 468 24 426 5 q 383 -14 330 -14 l 330 -14 q 291 -14 259 0 q 227 13 210 38 l 210 38 l 220 51 q 230 33 249 23 q 267 13 291 13 l 291 13 q 336 13 362 44 q 388 74 400 130 q 411 185 411 262 l 411 262 q 411 348 400 397 q 389 446 370 467 q 351 488 324 488 l 324 488 q 288 488 259 460 q 229 432 225 380 l 225 380 l 220 415 q 238 472 282 502 q 325 531 383 531 z"},"q":{"ha":585,"x_min":0,"x_max":585,"o":"m 256 531 l 256 531 q 303 531 337 519 q 371 506 396 472 l 396 472 l 381 467 q 366 490 343 500 q 320 510 294 510 l 294 510 q 242 510 215 448 q 188 386 188 259 l 188 259 q 188 174 200 124 q 212 73 234 51 q 255 29 284 29 l 284 29 q 317 29 345 58 q 372 87 374 137 l 374 137 l 379 102 q 364 45 329 16 q 294 -14 242 -14 l 242 -14 q 185 -14 139 15 q 92 44 65 105 q 37 165 37 261 l 37 261 q 37 352 65 412 q 93 471 143 501 q 192 531 256 531 z m 507 533 l 507 533 l 522 525 q 518 512 517 498 q 515 483 515 468 l 515 468 l 515 -92 q 515 -132 529 -146 q 542 -160 575 -160 l 575 -160 l 575 -181 q 557 -180 522 -178 q 487 -177 449 -177 l 449 -177 q 399 -177 353 -178 q 307 -180 281 -181 l 281 -181 l 281 -160 q 324 -160 348 -144 q 371 -129 371 -82 l 371 -82 l 371 491 q 397 489 423 494 q 449 499 472 510 q 494 520 507 533 z"},"r":{"ha":467,"x_min":0,"x_max":467,"o":"m 368 531 l 368 531 q 400 531 420 518 q 440 504 450 483 q 459 462 459 439 l 459 439 q 459 402 438 379 q 416 355 381 355 l 381 355 q 346 355 327 373 q 307 390 307 419 l 307 419 q 307 447 320 466 q 332 484 351 497 l 351 497 q 337 501 323 496 l 323 496 q 304 493 287 481 q 270 468 258 450 q 246 431 239 410 q 232 388 232 368 l 232 368 l 232 103 q 232 55 256 38 q 279 21 326 21 l 326 21 l 326 0 q 303 1 259 3 q 215 4 167 4 l 167 4 q 127 4 86 3 q 45 1 24 0 l 24 0 l 24 21 q 59 21 74 36 q 88 51 88 93 l 88 93 l 88 408 q 88 453 75 475 q 61 496 24 496 l 24 496 l 24 517 q 56 514 86 514 l 86 514 q 128 514 165 518 q 201 521 232 528 l 232 528 l 232 435 q 244 462 264 484 q 284 506 310 519 q 336 531 368 531 z"},"s":{"ha":462,"x_min":0,"x_max":462,"o":"m 222 531 l 222 531 q 264 531 296 521 q 327 510 341 500 l 341 500 q 375 477 383 530 l 383 530 l 404 530 q 402 502 401 462 q 400 421 400 354 l 400 354 l 379 354 q 374 391 360 427 q 346 463 320 486 q 293 509 251 509 l 251 509 q 222 509 202 493 q 182 476 182 445 l 182 445 q 182 415 200 393 q 218 370 247 350 q 275 329 306 306 l 306 306 q 339 281 366 257 q 393 232 409 203 q 425 174 425 134 l 425 134 q 425 89 399 56 q 373 22 331 4 q 288 -14 236 -14 l 236 -14 q 206 -14 183 -8 q 159 -2 142 7 l 142 7 q 129 13 118 19 q 106 24 96 28 l 96 28 q 86 31 79 21 q 71 11 67 -7 l 67 -7 l 46 -7 q 48 25 49 71 q 50 117 50 193 l 50 193 l 71 193 q 77 139 93 98 q 109 56 137 33 q 164 9 206 9 l 206 9 q 223 9 239 16 q 255 23 266 39 q 276 55 276 80 l 276 80 q 276 124 248 153 q 219 182 175 216 l 175 216 q 143 242 115 268 q 86 293 68 324 q 50 354 50 393 l 50 393 q 50 438 74 469 q 98 500 138 516 q 177 531 222 531 z"},"t":{"ha":352,"x_min":0,"x_max":352,"o":"m 227 681 l 227 681 l 227 517 l 345 517 l 345 497 l 227 497 l 227 93 q 227 63 238 51 q 249 38 271 38 l 271 38 q 289 38 307 52 q 325 65 339 98 l 339 98 l 356 89 q 340 44 308 15 q 275 -14 219 -14 l 219 -14 q 186 -14 161 -5 q 136 3 119 20 l 119 20 q 97 42 90 75 q 83 107 83 159 l 83 159 l 83 497 l -1 497 l -1 517 l 83 517 l 83 649 q 125 649 161 657 q 196 664 227 681 z"},"u":{"ha":606,"x_min":0,"x_max":606,"o":"m 522 528 l 522 528 l 522 109 q 522 64 536 43 q 550 21 586 21 l 586 21 l 586 0 q 555 3 524 3 l 524 3 q 482 3 446 0 q 410 -3 378 -11 l 378 -11 l 378 79 q 354 29 312 8 q 269 -14 217 -14 l 217 -14 q 175 -14 149 -3 q 123 8 108 25 l 108 25 q 91 44 84 75 q 77 106 77 155 l 77 155 l 77 408 q 77 453 64 475 q 50 496 13 496 l 13 496 l 13 517 q 45 514 75 514 l 75 514 q 117 514 154 518 q 190 521 221 528 l 221 528 l 221 114 q 221 89 226 70 q 230 51 243 41 q 256 30 281 30 l 281 30 q 308 30 330 45 q 351 60 365 87 q 378 113 378 146 l 378 146 l 378 408 q 378 453 365 475 q 351 496 314 496 l 314 496 l 314 517 q 346 514 376 514 l 376 514 q 418 514 455 518 q 491 521 522 528 z"},"v":{"ha":508,"x_min":0,"x_max":508,"o":"m 507 517 l 507 517 l 507 497 q 488 492 471 474 q 454 455 438 411 l 438 411 l 292 -2 q 276 -1 260 -1 q 243 -1 227 -2 l 227 -2 l 49 440 q 33 479 18 488 q 2 496 -9 496 l -9 496 l -9 517 q 23 515 58 514 q 92 512 133 512 l 133 512 q 164 512 199 514 q 233 515 263 517 l 263 517 l 263 496 q 242 496 226 494 q 209 492 203 481 q 197 470 205 442 l 205 442 l 322 132 l 312 118 l 391 337 q 410 391 407 426 q 404 460 385 478 q 366 495 334 497 l 334 497 l 334 517 q 349 516 367 516 q 384 515 401 515 q 417 514 430 514 l 430 514 q 450 514 472 515 q 494 516 507 517 z"},"w":{"ha":787,"x_min":0,"x_max":787,"o":"m 265 517 l 265 517 l 265 496 q 243 496 227 494 q 210 491 205 479 q 199 467 208 440 l 208 440 l 303 143 l 290 129 l 407 518 l 427 509 l 274 -2 q 258 -1 242 -1 q 226 -1 209 -2 l 209 -2 l 51 440 q 37 480 21 488 q 4 496 -7 496 l -7 496 l -7 517 q 25 514 60 513 q 94 511 135 511 l 135 511 q 166 511 201 513 q 235 515 265 517 z m 787 517 l 787 517 l 787 497 q 768 492 751 474 q 734 456 719 411 l 719 411 l 586 -2 q 570 -1 554 -1 q 537 -1 521 -2 l 521 -2 l 380 383 l 407 518 q 425 517 444 518 q 462 518 480 518 l 480 518 l 617 114 l 606 125 l 673 337 q 690 392 686 426 q 682 460 662 477 q 642 494 608 497 l 608 497 l 608 517 q 624 516 643 516 q 661 515 680 515 q 698 514 711 514 l 711 514 q 731 514 753 515 q 774 516 787 517 z"},"x":{"ha":536,"x_min":0,"x_max":536,"o":"m 246 517 l 246 517 l 246 496 q 226 496 217 487 q 207 478 217 462 l 217 462 l 480 71 q 492 53 506 39 q 519 24 536 21 l 536 21 l 536 0 q 521 1 491 3 q 460 4 429 4 l 429 4 q 393 4 355 3 q 317 1 299 0 l 299 0 l 299 21 q 319 21 329 30 q 338 39 328 55 l 328 55 l 65 446 q 48 471 37 483 q 25 494 9 496 l 9 496 l 9 517 q 26 516 60 515 q 94 513 128 513 l 128 513 q 161 513 195 515 q 229 516 246 517 z m 105 97 l 223 241 q 223 241 225 235 q 226 229 228 223 q 229 217 229 217 l 229 217 l 189 166 q 159 127 156 95 q 153 62 173 43 q 193 23 228 20 l 228 20 l 228 0 q 209 1 182 2 q 154 2 128 3 q 102 3 84 3 l 84 3 q 62 3 46 3 q 29 2 14 0 l 14 0 l 14 20 q 37 29 58 47 q 79 64 105 97 l 105 97 z m 507 517 l 507 517 l 507 497 q 486 491 463 471 q 440 451 415 420 l 415 420 l 305 282 q 305 282 304 288 q 302 293 301 299 q 299 305 299 305 l 299 305 l 349 372 q 376 407 382 434 q 388 461 374 478 q 359 495 323 497 l 323 497 l 323 517 q 352 516 382 515 q 412 514 436 514 l 436 514 q 459 514 476 515 q 493 516 507 517 z"},"y":{"ha":519,"x_min":0,"x_max":519,"o":"m 513 517 l 513 517 l 513 497 q 494 492 477 474 q 460 455 444 411 l 444 411 l 303 15 l 266 -55 l 48 440 q 31 479 15 488 q -2 496 -14 496 l -14 496 l -14 517 q 19 514 55 513 q 90 511 123 511 l 123 511 q 164 511 198 513 q 232 515 262 517 l 262 517 l 262 496 q 242 496 225 494 q 207 491 201 480 q 194 468 206 440 l 206 440 l 332 136 l 323 130 l 397 337 q 416 391 413 426 q 410 460 391 478 q 372 495 339 497 l 339 497 l 339 517 q 355 516 372 516 q 389 515 406 515 q 423 514 436 514 l 436 514 q 456 514 478 515 q 500 516 513 517 z m 279 13 l 303 15 l 265 -92 q 255 -117 245 -134 q 234 -152 221 -163 l 221 -163 q 207 -175 185 -181 q 163 -188 134 -188 l 134 -188 q 110 -188 85 -180 q 59 -172 42 -154 q 25 -136 25 -108 l 25 -108 q 25 -77 47 -58 q 69 -40 105 -40 l 105 -40 q 138 -40 159 -56 q 180 -72 180 -103 l 180 -103 q 180 -123 168 -141 q 155 -159 130 -168 l 130 -168 q 135 -169 142 -169 q 149 -169 153 -169 l 153 -169 q 183 -169 206 -150 q 229 -131 244 -90 l 244 -90 l 279 13 z"},"z":{"ha":474,"x_min":0,"x_max":474,"o":"m 444 522 l 444 522 l 194 15 l 246 15 q 285 15 320 32 q 354 48 378 87 q 401 126 406 194 l 406 194 l 427 194 q 427 121 428 75 q 429 28 431 -4 l 431 -4 q 386 -2 337 -1 q 288 0 239 0 l 239 0 q 188 0 134 -1 q 80 -3 31 -5 l 31 -5 l 281 502 l 225 502 q 185 502 152 486 q 118 469 97 430 q 75 390 69 323 l 69 323 l 48 323 q 48 397 47 443 q 46 489 44 521 l 44 521 q 90 519 139 518 q 188 517 236 517 l 236 517 q 288 517 342 519 q 395 520 444 522 z"},"{":{"ha":333,"x_min":0,"x_max":333,"o":"m 316 782 l 316 782 l 316 763 q 294 762 280 755 q 265 748 257 727 q 249 706 246 664 q 242 622 242 551 l 242 551 q 242 484 226 439 q 210 394 183 366 q 155 338 120 323 q 84 307 45 299 l 45 299 q 84 291 120 276 q 155 260 183 232 q 210 204 226 159 q 242 114 242 47 l 242 47 q 242 -27 246 -70 q 249 -113 257 -134 q 265 -156 280 -162 q 294 -169 316 -169 l 316 -169 l 316 -188 q 237 -188 189 -167 q 141 -147 120 -96 q 98 -45 98 47 l 98 47 q 98 141 92 193 q 85 244 69 266 q 53 288 22 290 l 22 290 l 17 290 l 17 308 l 22 308 q 53 310 69 332 q 85 353 92 405 q 98 457 98 551 l 98 551 q 98 639 120 690 q 141 740 189 761 q 237 782 316 782 z"},"|":{"ha":253,"x_min":0,"x_max":253,"o":"m 83 858 l 171 858 l 171 -195 l 83 -195 l 83 858 z"},"}":{"ha":333,"x_min":0,"x_max":333,"o":"m 17 763 l 17 782 q 98 782 146 761 q 193 740 214 690 q 235 639 235 551 l 235 551 q 235 457 242 405 q 248 353 265 332 q 281 310 311 308 l 311 308 l 316 308 l 316 290 l 311 290 q 281 288 265 266 q 248 244 242 193 q 235 141 235 47 l 235 47 q 235 -45 214 -96 q 193 -147 146 -167 q 98 -188 17 -188 l 17 -188 l 17 -169 q 39 -169 54 -162 q 69 -156 77 -134 q 85 -113 88 -70 q 91 -27 91 47 l 91 47 q 91 114 108 159 q 124 204 151 232 q 178 260 214 276 q 250 291 288 299 l 288 299 q 250 307 214 323 q 178 338 151 366 q 124 394 108 439 q 91 484 91 551 l 91 551 q 91 622 88 664 q 85 706 77 727 q 69 748 54 755 q 39 762 17 763 l 17 763 z"},"~":{"ha":668,"x_min":0,"x_max":668,"o":"m 213 389 l 213 389 q 254 389 288 376 q 322 362 355 345 q 387 327 421 314 q 454 300 491 300 l 491 300 q 525 300 552 316 q 578 331 593 370 l 593 370 l 611 366 q 606 319 585 284 q 563 249 530 230 q 496 211 457 211 l 457 211 q 417 211 383 225 q 348 238 316 256 q 284 273 251 287 q 218 300 179 300 l 179 300 q 146 300 120 285 q 93 269 77 230 l 77 230 l 60 234 q 64 281 86 316 q 108 351 142 370 q 175 389 213 389 z"}}}
